<?xml version="1.0" encoding="UTF-8"?>
<!DOCTYPE svg PUBLIC "-//W3C//DTD SVG 1.1//EN" "http://www.w3.org/Graphics/SVG/1.1/DTD/svg11.dtd">
<svg xmlns="http://www.w3.org/2000/svg" version="1.1" width="2500px" height="968px" style="shape-rendering:geometricPrecision; text-rendering:geometricPrecision; image-rendering:optimizeQuality; fill-rule:evenodd; clip-rule:evenodd" xmlns:xlink="http://www.w3.org/1999/xlink">
<g><path style="opacity:0.997" fill="#c9322d" d="M 480.5,28.5 C 571.605,23.0408 652.772,48.3741 724,104.5C 745.146,77.6674 771.98,58.8341 804.5,48C 828.191,41.124 852.191,39.7906 876.5,44C 987.833,44.3333 1099.17,44.6667 1210.5,45C 1233.07,45.4469 1255.41,47.9469 1277.5,52.5C 1277.5,49.5 1277.5,46.5 1277.5,43.5C 1396.5,45.3662 1515.5,47.1995 1634.5,49C 1674.14,50.5754 1711.47,60.5754 1746.5,79C 1762.55,89.0519 1776.71,101.219 1789,115.5C 1884.8,55.2328 1986.64,42.7328 2094.5,78C 2212.87,124.035 2286.7,208.868 2316,332.5C 2318.84,346.716 2320.84,361.05 2322,375.5C 2322.67,459.833 2322.67,544.167 2322,628.5C 2312.08,693.418 2276.24,736.918 2214.5,759C 2162.58,773.18 2114.58,765.014 2070.5,734.5C 1987.79,754.973 1907.79,747.473 1830.5,712C 1820.34,706.754 1810.34,701.254 1800.5,695.5C 1799.5,712.153 1799.17,728.82 1799.5,745.5C 1674.17,745.667 1548.83,745.5 1423.5,745C 1412.11,743.826 1400.78,742.326 1389.5,740.5C 1389.5,742.167 1389.5,743.833 1389.5,745.5C 1264.81,746.195 1140.15,745.028 1015.5,742C 981.985,740.872 950.319,732.705 920.5,717.5C 871.061,742.232 822.061,741.398 773.5,715C 746.948,697.946 726.948,675.112 713.5,646.5C 643.123,698.517 564.123,720.851 476.5,713.5C 476.667,745.835 476.5,778.168 476,810.5C 470.716,866.275 443.216,906.775 393.5,932C 347.464,953.136 301.13,953.802 254.5,934C 200.498,907.202 170.331,863.702 164,803.5C 163.333,654.833 163.333,506.167 164,357.5C 172.959,231.664 231.126,136.497 338.5,72C 382.864,47.4875 430.197,32.9875 480.5,28.5 Z"/></g>
<g><path style="opacity:1" fill="#fefefe" d="M 483.5,108.5 C 585.452,103.899 666.285,142.566 726,224.5C 776.609,304.465 784.275,388.465 749,476.5C 704.917,569.212 631.75,621.712 529.5,634C 501.574,635.844 473.907,634.01 446.5,628.5C 446.333,575.499 446.5,522.499 447,469.5C 492.296,494.148 536.129,491.982 578.5,463C 610.743,434.981 625.243,399.481 622,356.5C 615.273,316.207 593.44,287.374 556.5,270C 515.648,253.839 476.981,257.839 440.5,282C 419.06,298.035 405.56,319.202 400,345.5C 397.868,499.825 396.535,654.158 396,808.5C 388.649,842.846 367.482,862.346 332.5,867C 294.876,870.609 267.376,855.776 250,822.5C 247.928,816.952 246.262,811.285 245,805.5C 243.344,655.858 243.011,506.192 244,356.5C 252.324,263.62 295.824,192.787 374.5,144C 408.49,124.656 444.823,112.822 483.5,108.5 Z"/></g>
<g><path style="opacity:1" fill="#fefefe" d="M 839.5,121.5 C 868.606,119.641 891.773,130.308 909,153.5C 914.115,161.844 917.448,170.844 919,180.5C 919.667,314.167 919.667,447.833 919,581.5C 918.527,583.779 917.527,585.779 916,587.5C 907.767,641.098 877.267,662.264 824.5,651C 799.677,639.191 785.177,619.691 781,592.5C 779.75,454.497 778.75,316.497 778,178.5C 786.838,146.826 807.338,127.826 839.5,121.5 Z"/></g>
<g><path style="opacity:1" fill="#e18c89" d="M 1213.5,125.5 C 1126.83,125.5 1040.17,125.5 953.5,125.5C 953.5,175.833 953.5,226.167 953.5,276.5C 953.5,276.833 953.5,277.167 953.5,277.5C 952.501,226.669 952.168,175.669 952.5,124.5C 1039.67,124.167 1126.67,124.501 1213.5,125.5 Z"/></g>
<g><path style="opacity:1" fill="#fefefe" d="M 1213.5,125.5 C 1243.31,125.367 1270.98,132.867 1296.5,148C 1322.3,167.809 1332.46,193.975 1327,226.5C 1326.27,248.873 1321.27,270.207 1312,290.5C 1305.45,302.372 1298.12,313.705 1290,324.5C 1233.68,391.985 1176.84,458.985 1119.5,525.5C 1118.96,525.56 1118.62,525.893 1118.5,526.5C 1183.5,527.5 1248.5,527.833 1313.5,527.5C 1313.5,530.167 1313.5,532.833 1313.5,535.5C 1312.69,574.164 1312.02,612.831 1311.5,651.5C 1310.52,655.634 1310.18,659.968 1310.5,664.5C 1263.83,664.5 1217.17,664.5 1170.5,664.5C 1115.12,665.279 1059.78,664.112 1004.5,661C 945.511,654.17 919.678,621.337 927,562.5C 929.768,543.636 936.435,526.303 947,510.5C 967.891,485.27 989.891,460.937 1013,437.5C 1061.37,384.63 1109.54,331.63 1157.5,278.5C 1158.04,278.44 1158.38,278.107 1158.5,277.5C 1090.17,276.5 1021.84,276.167 953.5,276.5C 953.5,226.167 953.5,175.833 953.5,125.5C 1040.17,125.5 1126.83,125.5 1213.5,125.5 Z"/></g>
<g><path style="opacity:1" fill="#fefefe" d="M 1524.5,525.5 C 1523.96,525.56 1523.62,525.893 1523.5,526.5C 1530.13,527.497 1536.8,527.83 1543.5,527.5C 1589.83,528.167 1636.17,528.833 1682.5,529.5C 1694.32,530.495 1706.32,530.828 1718.5,530.5C 1718.5,575.167 1718.5,619.833 1718.5,664.5C 1621.83,664.5 1525.17,664.5 1428.5,664.5C 1348.07,657.862 1318.91,615.528 1341,537.5C 1346.2,522.09 1354.2,508.424 1365,496.5C 1371.33,490.167 1377.67,483.833 1384,477.5C 1443.09,410.403 1502.93,343.903 1563.5,278C 1495.16,278.131 1426.83,278.964 1358.5,280.5C 1358.5,228.833 1358.5,177.167 1358.5,125.5C 1448.5,126.547 1538.5,127.713 1628.5,129C 1726.75,136.281 1758.92,186.447 1725,279.5C 1718.3,294.85 1709.96,309.183 1700,322.5C 1642.38,390.949 1583.88,458.616 1524.5,525.5 Z"/></g>
<g><path style="opacity:1" fill="#fefefe" d="M 1959.5,138.5 C 2055.66,135.34 2133.16,171.34 2192,246.5C 2220.47,285.892 2237.14,329.892 2242,378.5C 2242.17,418.667 2242.33,458.833 2242.5,499C 2242.64,541.858 2242.14,584.691 2241,627.5C 2227.37,669.248 2198.54,688.415 2154.5,685C 2121.27,679.099 2100.1,659.933 2091,627.5C 2090.67,544.5 2090.33,461.5 2090,378.5C 2074.41,321.438 2036.91,292.104 1977.5,290.5C 1929.07,293.12 1894.23,316.12 1873,359.5C 1857.77,402.344 1864.1,441.678 1892,477.5C 1928.03,515.216 1970.87,525.716 2020.5,509C 2027.04,506.652 2033.38,503.818 2039.5,500.5C 2040.5,553.162 2040.83,605.829 2040.5,658.5C 1938.44,678.707 1851.94,651.041 1781,575.5C 1722.21,504.04 1703.54,423.04 1725,332.5C 1745.95,261.564 1788.45,207.73 1852.5,171C 1886.12,152.954 1921.79,142.121 1959.5,138.5 Z"/></g>
<g><path style="opacity:1" fill="#e8acaa" d="M 953.5,277.5 C 953.5,277.167 953.5,276.833 953.5,276.5C 1021.84,276.167 1090.17,276.5 1158.5,277.5C 1158.38,278.107 1158.04,278.44 1157.5,278.5C 1089.67,277.501 1021.67,277.167 953.5,277.5 Z"/></g>
<g><path style="opacity:1" fill="#e9adaa" d="M 1119.5,525.5 C 1184.33,526.499 1249.33,526.832 1314.5,526.5C 1314.81,529.713 1314.48,532.713 1313.5,535.5C 1313.5,532.833 1313.5,530.167 1313.5,527.5C 1248.5,527.833 1183.5,527.5 1118.5,526.5C 1118.62,525.893 1118.96,525.56 1119.5,525.5 Z"/></g>
<g><path style="opacity:1" fill="#dc7c78" d="M 1524.5,525.5 C 1530.83,526.167 1537.17,526.833 1543.5,527.5C 1536.8,527.83 1530.13,527.497 1523.5,526.5C 1523.62,525.893 1523.96,525.56 1524.5,525.5 Z"/></g>
<g><path style="opacity:1" fill="#f0c4c2" d="M 1311.5,651.5 C 1311.5,656.167 1311.5,660.833 1311.5,665.5C 1264.33,665.832 1217.33,665.499 1170.5,664.5C 1217.17,664.5 1263.83,664.5 1310.5,664.5C 1310.18,659.968 1310.52,655.634 1311.5,651.5 Z"/></g>
<g><path style="opacity:1" fill="#f6dddc" d="M 1682.5,529.5 C 1694.83,529.5 1707.17,529.5 1719.5,529.5C 1719.5,574.833 1719.5,620.167 1719.5,665.5C 1622.33,665.833 1525.33,665.499 1428.5,664.5C 1525.17,664.5 1621.83,664.5 1718.5,664.5C 1718.5,619.833 1718.5,575.167 1718.5,530.5C 1706.32,530.828 1694.32,530.495 1682.5,529.5 Z"/></g>
<g><path style="opacity:0.115" fill="#c73531" d="M 420.5,943.5 C 421.601,942.402 422.934,942.235 424.5,943C 423.207,943.49 421.873,943.657 420.5,943.5 Z"/></g>
<g><path style="opacity:0.067" fill="#cd302a" d="M 416.5,943.5 C 417.376,943.369 418.043,943.702 418.5,944.5C 416.926,945.631 415.259,945.798 413.5,945C 414.737,944.768 415.737,944.268 416.5,943.5 Z"/></g>
<g><path style="opacity:0.08" fill="#c8312d" d="M 409.5,945.5 C 410.675,945.281 411.675,945.614 412.5,946.5C 410.579,947.641 408.579,947.808 406.5,947C 407.737,946.768 408.737,946.268 409.5,945.5 Z"/></g>
<g><path style="opacity:0.099" fill="#c7342f" d="M 372.5,959.5 C 375.535,957.482 378.869,956.316 382.5,956C 379.629,958.457 376.295,959.624 372.5,959.5 Z"/></g>
<g><path style="opacity:0.067" fill="#c9322c" d="M 372.5,959.5 C 371.817,961.176 370.483,961.843 368.5,961.5C 369.514,960.326 370.847,959.66 372.5,959.5 Z"/></g>
<g><path style="opacity:0.075" fill="#ca312c" d="M 368.5,961.5 C 365.833,963.5 363.167,965.5 360.5,967.5C 358.833,967.5 357.167,967.5 355.5,967.5C 359.416,964.71 363.749,962.71 368.5,961.5 Z"/></g>
</svg>
